#!OML:ASF F:\VICON\USERDATA\INSTALL\rory3\rory3.ASF
:FULLY-SPECIFIED
:DEGREES
1
root -8.13685 18.7054 0.844703 0.0552617 36.7299 -1.3334
lowerback 3.90375 0.805923 -2.68077
upperback 0.628769 0.941439 -1.80501
thorax -1.55537 0.484724 -0.398435
lowerneck -7.35546 0.515219 -6.20821
upperneck 22.0317 0.312627 7.37516
head 7.95101 0.411655 3.55072
rclavicle 5.30755e-014 -1.19271e-014
rhumerus -37.3795 -8.57718 -77.8068
rradius 22.2377
rwrist 21.2312
rhand -25.5045 2.52214
rfingers 7.12502
rthumb 1.02429 -27.4551
lclavicle 5.30755e-014 -1.19271e-014
lhumerus -25.5549 1.46193 82.9782
lradius 27.2198
lwrist -4.94969
lhand -21.5616 22.8658
lfingers 7.12502
lthumb 4.83211 52.7907
rfemur -0.736654 4.65331 15.1081
rtibia 30.8195
rfoot -18.695 -24.7114
rtoes -14.1719
lfemur -10.623 -3.05824 -19.7976
ltibia 27.5956
lfoot -24.2229 23.0251
ltoes 12.2168
2
root -8.09051 18.7041 0.832888 -0.00428353 37.5335 -1.41918
lowerback 3.88677 0.847315 -2.55683
upperback 0.773944 1.00783 -1.76978
thorax -1.39613 0.515507 -0.433189
lowerneck -7.66091 0.739714 -6.44131
upperneck 22.4387 0.570646 7.86332
head 8.11653 0.569832 3.7945
rclavicle 3.06128e-014 -3.18055e-015
rhumerus -37.4653 -8.54674 -77.7656
rradius 22.5625
rwrist 20.9792
rhand -25.5259 2.55635
rfingers 7.12502
rthumb 1.00364 -27.421
lclavicle 3.06128e-014 -3.18055e-015
lhumerus -25.3864 1.30978 83.1439
lradius 27.5904
lwrist -4.81275
lhand -21.5051 22.7763
lfingers 7.12502
lthumb 4.88667 52.6999
rfemur -0.755806 4.20164 15.0372
rtibia 31.2304
rfoot -18.3944 -24.7869
rtoes -14.6002
lfemur -10.7699 -2.98583 -19.8449
ltibia 27.8168
lfoot -23.9377 22.3444
ltoes 11.7595
3
root -8.04896 18.7033 0.824775 -0.264359 38.4483 -1.77278
lowerback 3.91023 0.857652 -2.27893
upperback 0.920027 1.0376 -1.67963
thorax -1.25644 0.527892 -0.496425
lowerneck -7.56905 0.900697 -6.41298
upperneck 22.4963 0.762145 8.00294
head 8.10151 0.678129 3.85409
rclavicle 6.55989e-014 -3.18055e-015
rhumerus -37.5455 -8.39156 -77.8325
rradius 22.8596
rwrist 20.4879
rhand -25.3541 2.57037
rfingers 7.12502
rthumb 1.16954 -27.4062
lclavicle 6.55989e-014 -3.18055e-015
lhumerus -25.2354 1.09099 83.2673
lradius 27.9477
lwrist -4.72869
lhand -21.3741 22.6254
lfingers 7.12502
lthumb 5.01317 52.5461
rfemur -0.711299 3.91882 15.3065
rtibia 31.6549
rfoot -18.3979 -25.073
rtoes -14.7433
lfemur -10.9472 -2.83614 -19.6247
ltibia 28.1018
lfoot -23.4929 21.5293
ltoes 11.3048
4
root -8.00899 18.6973 0.810427 -0.422158 39.3602 -2.01855
lowerback 4.09541 0.916083 -2.04375
upperback 0.934127 1.1198 -1.62674
thorax -1.34283 0.568738 -0.581059
lowerneck -7.37437 1.00332 -6.30522
upperneck 22.647 0.875715 8.0447
head 8.10682 0.746574 3.86161
rclavicle -1.57139e-013 2.54444e-014
rhumerus -37.797 -8.31955 -77.7942
rradius 23.1276
rwrist 20.072
rhand -25.1184 2.70516
rfingers 7.12502
rthumb 1.39723 -27.27
lclavicle -1.57139e-013 2.54444e-014
lhumerus -25.2896 0.6018 83.5063
lradius 28.4072
lwrist -4.23375
lhand -21.6359 22.7219
lfingers 7.12502
lthumb 4.76037 52.6484
rfemur -0.764382 3.50545 15.446
rtibia 32.1569
rfoot -18.229 -25.3108
rtoes -15.1099
lfemur -11.165 -2.7809 -19.528
ltibia 28.3164
lfoot -23.0311 20.8641
ltoes 10.7834
5
root -7.97039 18.6886 0.798829 -0.486973 40.1899 -2.06378
lowerback 4.45127 1.05543 -1.94363
upperback 0.825231 1.29498 -1.66225
thorax -1.65154 0.657716 -0.691678
lowerneck -7.20103 1.05435 -6.04724
upperneck 23.0044 0.90701 8.02038
head 8.1943 0.785007 3.8213
rclavicle 4.36332e-014 7.95139e-015
rhumerus -38.317 -8.54345 -77.6456
rradius 23.4322
rwrist 19.8516
rhand -24.7548 2.63222
rfingers 7.12502
rthumb 1.74843 -27.3404
lclavicle 4.36332e-014 7.95139e-015
lhumerus -25.5648 -0.155401 83.7759
lradius 28.9379
lwrist -3.52458
lhand -22.1488 23.3697
lfingers 7.12502
lthumb 4.26506 53.3067
rfemur -0.840056 3.13449 15.4036
rtibia 32.7285
rfoot -17.8429 -25.5629
rtoes -15.1333
lfemur -11.3174 -2.72213 -19.6073
ltibia 28.5042
lfoot -22.61 20.2581
ltoes 10.2334
6
root -7.92982 18.6854 0.785253 -0.522988 40.8184 -2.08963
lowerback 4.73046 1.20868 -1.82807
upperback 0.764941 1.49386 -1.70267
thorax -1.86613 0.757392 -0.817237
lowerneck -7.12524 1.14117 -5.91015
upperneck 23.356 0.993301 8.08073
head 8.29202 0.848808 3.83675
rclavicle 3.90612e-014 -4.77083e-015
rhumerus -38.6884 -8.63632 -77.6227
rradius 23.7178
rwrist 19.3481
rhand -25.1654 2.67954
rfingers 7.12502
rthumb 1.35183 -27.2959
lclavicle 3.90612e-014 -4.77083e-015
lhumerus -25.7603 -0.697268 83.9481
lradius 29.3616
lwrist -2.96816
lhand -23.0297 24.4558
lfingers 7.12502
lthumb 3.41441 54.4082
rfemur -1.07216 3.22827 15.3117
rtibia 33.3841
rfoot -18.0645 -25.6339
rtoes -13.4823
lfemur -11.4133 -2.62373 -19.7103
ltibia 28.614
lfoot -22.2466 19.7646
ltoes 9.73846
7
root -7.88266 18.6807 0.766847 -0.467803 41.357 -2.05329
lowerback 4.82735 1.34128 -1.70726
upperback 0.786002 1.67407 -1.73106
thorax -1.8943 0.846698 -0.927638
lowerneck -7.09106 1.26676 -5.9549
upperneck 23.6281 1.14021 8.25406
head 8.36288 0.936307 3.92547
rclavicle 1.37658e-013 4.77083e-015
rhumerus -38.8574 -8.43091 -77.6974
rradius 24.0087
rwrist 18.7545
rhand -26.2831 3.29519
rfingers 7.12502
rthumb 0.272283 -26.6844
lclavicle 1.37658e-013 4.77083e-015
lhumerus -25.7781 -0.678961 83.942
lradius 29.5361
lwrist -3.1508
lhand -23.3781 24.7957
lfingers 7.12502
lthumb 3.07791 54.7532
rfemur -1.40375 3.34924 15.1008
rtibia 34.142
rfoot -18.5679 -25.4278
rtoes -11.4864
lfemur -11.5381 -2.5828 -19.8964
ltibia 28.7287
lfoot -21.9851 19.3736
ltoes 9.23304
8
root -7.82561 18.6673 0.760705 -0.235035 42.1828 -1.64052
lowerback 4.78163 1.40101 -1.89169
upperback 0.869768 1.74747 -1.82004
thorax -1.78511 0.884312 -0.917823
lowerneck -7.04971 1.38266 -5.91719
upperneck 23.9486 1.2772 8.35069
head 8.45158 1.01948 3.97503
rclavicle -5.43676e-014 -6.36111e-015
rhumerus -39.1937 -8.68803 -77.4625
rradius 24.5235
rwrist 19.0376
rhand -26.815 3.74925
rfingers 7.12502
rthumb -0.241452 -26.2304
lclavicle -5.43676e-014 -6.36111e-015
lhumerus -25.7928 -0.601901 83.9652
lradius 29.6704
lwrist -3.40712
lhand -22.6821 23.6381
lfingers 7.12502
lthumb 3.75008 53.5848
rfemur -1.48487 2.89469 14.5785
rtibia 34.925
rfoot -18.3526 -25.3491
rtoes -11.6864
lfemur -11.4974 -2.54093 -20.4015
ltibia 28.7642
lfoot -21.6724 18.7209
ltoes 8.67752
9
root -7.79427 18.6629 0.734958 -0.49298 42.627 -2.02407
lowerback 5.14816 1.58563 -1.54064
upperback 0.839341 2.00082 -1.75675
thorax -2.01116 1.00914 -1.07743
lowerneck -6.99312 1.49582 -5.81171
upperneck 24.2044 1.40059 8.44768
head 8.51745 1.10192 4.00954
rclavicle -2.71341e-014 7.95139e-016
rhumerus -39.5078 -9.25506 -77.1099
rradius 24.9832
rwrist 19.4748
rhand -26.9149 3.8323
rfingers 7.12502
rthumb -0.337879 -26.1472
lclavicle -2.71341e-014 7.95139e-016
lhumerus -25.7868 -0.781493 84.091
lradius 29.8563
lwrist -3.22005
lhand -21.9778 22.623
lfingers 7.12502
lthumb 4.43016 52.5567
rfemur -1.96828 3.037 14.898
rtibia 35.8505
rfoot -17.5271 -25.9666
rtoes -13.1988
lfemur -11.5924 -2.70185 -20.1966
ltibia 28.7804
lfoot -21.6451 18.3633
ltoes 9.0756
10
root -7.71073 18.6574 0.751533 -0.367767 43.6354 -1.65037
lowerback 4.66672 1.57764 -1.64291
upperback 1.09491 2.00561 -1.8533
thorax -1.47947 1.01152 -1.09906
lowerneck -6.88663 1.62158 -5.69409
upperneck 24.3564 1.53137 8.58223
head 8.53758 1.19131 4.05062
rclavicle -8.70677e-014 -7.95139e-016
rhumerus -39.5104 -9.03028 -77.2202
rradius 25.0639
rwrist 18.8975
rhand -27.0326 3.89915
rfingers 7.12502
rthumb -0.45161 -26.0801
lclavicle -8.70677e-014 -7.95139e-016
lhumerus -25.776 -1.11803 84.2395
lradius 30.0223
lwrist -2.60805
lhand -22.5744 22.9222
lfingers 7.12502
lthumb 3.85414 52.8671
rfemur -1.92264 2.13232 14.3372
rtibia 36.8324
rfoot -16.5679 -26.0467
rtoes -15.2774
lfemur -11.2685 -2.55638 -20.6996
ltibia 28.7604
lfoot -21.4257 17.3741
ltoes 8.90178
11
root -7.66454 18.6546 0.740733 -0.281399 44.271 -1.23859
lowerback 4.88506 1.69758 -1.92128
upperback 1.22744 2.14941 -1.92124
thorax -1.47175 1.08475 -1.02639
lowerneck -6.81732 1.73456 -5.55625
upperneck 24.5894 1.65012 8.67816
head 8.59445 1.27449 4.07801
rclavicle -1.02374e-013 -1.59028e-014
rhumerus -39.4865 -8.42475 -77.5232
rradius 25.2404
rwrist 18.0413
rhand -27.1803 4.12077
rfingers 7.12502
rthumb -0.59425 -25.8581
lclavicle -1.02374e-013 -1.59028e-014
lhumerus -25.7835 -1.37112 84.3722
lradius 30.1921
lwrist -2.03924
lhand -23.3966 23.24
lfingers 7.12502
lthumb 3.06007 53.1978
rfemur -2.18444 1.94394 13.8841
rtibia 37.9181
rfoot -15.9048 -26.3055
rtoes -16.3582
lfemur -11.0597 -2.48561 -21.1721
ltibia 28.7622
lfoot -21.1738 16.8448
ltoes 8.75447
12
root -7.62891 18.6516 0.721668 -0.381094 44.7669 -1.27544
lowerback 5.1743 1.86184 -1.87529
upperback 1.28485 2.3635 -1.90558
thorax -1.57225 1.19204 -1.05861
lowerneck -6.85066 1.82016 -5.50633
upperneck 24.9094 1.73923 8.8056
head 8.70152 1.34131 4.13518
rclavicle -1.11319e-013 -1.11319e-014
rhumerus -39.6121 -8.46864 -77.4737
rradius 25.6339
rwrist 17.948
rhand -27.1355 4.72095
rfingers 7.12502
rthumb -0.550955 -25.2581
lclavicle -1.11319e-013 -1.11319e-014
lhumerus -25.7734 -1.4188 84.4583
lradius 30.4113
lwrist -1.98718
lhand -23.4233 24.4548
lfingers 7.12502
lthumb 3.03434 54.4129
rfemur -2.68585 2.15441 13.8679
rtibia 39.0152
rfoot -15.544 -26.667
rtoes -16.2058
lfemur -11.0097 -2.58339 -21.2668
ltibia 28.7199
lfoot -20.9468 16.5806
ltoes 8.61794
13
root -7.58579 18.6479 0.71491 -0.525813 45.3057 -1.43096
lowerback 5.31935 1.98863 -1.74598
upperback 1.31352 2.53612 -1.88079
thorax -1.61856 1.27803 -1.12164
lowerneck -6.8377 1.93437 -5.50312
upperneck 25.2257 1.86952 8.95861
head 8.79431 1.42559 4.2122
rclavicle 3.28989e-014 -1.11319e-014
rhumerus -39.8072 -8.45469 -77.4401
rradius 26.0176
rwrist 17.8618
rhand -26.8393 4.85622
rfingers 7.12502
rthumb -0.264896 -25.1234
lclavicle 3.28989e-014 -1.11319e-014
lhumerus -25.8776 -1.33517 84.4161
lradius 30.5279
lwrist -2.18266
lhand -23.0953 25.3542
lfingers 7.12502
lthumb 3.35108 55.3076
rfemur -3.16243 2.37238 13.9717
rtibia 40.1578
rfoot -15.0514 -27.0303
rtoes -15.4344
lfemur -10.9459 -2.76633 -21.2685
ltibia 28.7062
lfoot -20.7903 16.3457
ltoes 8.29938
14
root -7.5412 18.6427 0.708401 -0.632727 45.8753 -1.43815
lowerback 5.5124 2.10038 -1.72569
upperback 1.35254 2.6817 -1.89116
thorax -1.68376 1.35108 -1.16046
lowerneck -6.76188 2.06056 -5.35888
upperneck 25.529 2.01247 9.02889
head 8.87375 1.52004 4.23561
rclavicle -1.41833e-013 9.54166e-015
rhumerus -39.9449 -7.94045 -77.6461
rradius 26.4362
rwrist 17.1778
rhand -26.8541 4.3828
rfingers 7.12502
rthumb -0.279187 -25.5968
lclavicle -1.41833e-013 9.54166e-015
lhumerus -26.0124 -0.890359 84.1021
lradius 30.2717
lwrist -2.99536
lhand -22.2747 23.199
lfingers 7.12502
lthumb 4.1435 53.1385
rfemur -3.57991 2.45387 13.9141
rtibia 41.2974
rfoot -14.0194 -27.2927
rtoes -14.5545
lfemur -10.8096 -2.87895 -21.3981
ltibia 28.7231
lfoot -20.6044 16.0374
ltoes 7.85447
